<svg xmlns="http://www.w3.org/2000/svg" xmlns:xlink="http://www.w3.org/1999/xlink" zoomAndPan="magnify" preserveAspectRatio="xMidYMid meet" version="1.0" viewBox="48.09 133.05 304.18 157.07"><defs><g/><clipPath id="36d9c40fe9"><path d="M 241 146 L 324 146 L 324 266 L 241 266 Z M 241 146 " clip-rule="nonzero"/></clipPath><clipPath id="039b79bff7"><path d="M 210.023438 243.539062 L 263.214844 141.859375 L 352.265625 188.445312 L 299.074219 290.121094 Z M 210.023438 243.539062 " clip-rule="nonzero"/></clipPath><clipPath id="3dccbb0440"><path d="M 210.023438 243.539062 L 263.214844 141.859375 L 352.265625 188.445312 L 299.074219 290.121094 Z M 210.023438 243.539062 " clip-rule="nonzero"/></clipPath><clipPath id="7a14849ca2"><path d="M 210.023438 243.539062 L 263.214844 141.859375 L 352.265625 188.445312 L 299.074219 290.121094 Z M 210.023438 243.539062 " clip-rule="nonzero"/></clipPath><clipPath id="e8a31e05f7"><path d="M 66 149 L 147 149 L 147 269 L 66 269 Z M 66 149 " clip-rule="nonzero"/></clipPath><clipPath id="6ba38c3e2a"><path d="M 177.671875 162.347656 L 144.222656 272.113281 L 48.085938 242.816406 L 81.539062 133.050781 Z M 177.671875 162.347656 " clip-rule="nonzero"/></clipPath><clipPath id="ef74dc4e9f"><path d="M 177.671875 162.347656 L 144.222656 272.113281 L 48.085938 242.816406 L 81.539062 133.050781 Z M 177.671875 162.347656 " clip-rule="nonzero"/></clipPath><clipPath id="89592b3a3a"><path d="M 177.671875 162.347656 L 144.222656 272.113281 L 48.085938 242.816406 L 81.539062 133.050781 Z M 177.671875 162.347656 " clip-rule="nonzero"/></clipPath></defs><g clip-path="url(#36d9c40fe9)"><g clip-path="url(#039b79bff7)"><g clip-path="url(#3dccbb0440)"><g clip-path="url(#7a14849ca2)"><path fill="#000000" d="M 303.628906 230.570312 C 305.488281 229.789062 307.28125 228.898438 309.152344 228.300781 C 311.976562 227.394531 314.785156 227.601562 317.472656 228.914062 C 322.433594 231.335938 324.984375 237.640625 323.386719 242.261719 C 321.988281 246.324219 318.292969 249.441406 313.566406 248.40625 C 311.121094 247.867188 309.246094 246.507812 307.820312 244.5 C 306 241.953125 304.980469 239.054688 304.085938 236.09375 C 303.71875 234.890625 303.421875 233.679688 303.066406 232.371094 C 299.714844 234.800781 296.9375 237.730469 294.167969 240.703125 C 294.25 240.664062 294.34375 240.636719 294.414062 240.59375 C 296.382812 239.148438 298.609375 238.179688 300.851562 237.273438 C 301.171875 237.140625 301.503906 237.015625 301.832031 236.996094 C 302.054688 236.988281 302.378906 237.125 302.507812 237.300781 C 302.597656 237.429688 302.433594 237.738281 302.351562 237.960938 C 302.316406 238.054688 302.195312 238.132812 302.113281 238.199219 C 299.226562 240.554688 296.128906 242.53125 292.621094 243.835938 C 292.195312 243.992188 291.746094 244.183594 291.308594 244.207031 C 290.628906 244.246094 290.214844 244.644531 289.769531 245.074219 C 286.464844 248.253906 283.164062 251.429688 279.8125 254.550781 C 278.800781 255.492188 277.644531 256.257812 276.578125 257.152344 C 277.730469 256.664062 278.867188 256.09375 280.058594 255.707031 C 282.453125 254.957031 284.878906 254.300781 287.292969 253.636719 C 287.679688 253.527344 288.105469 253.496094 288.511719 253.535156 C 288.75 253.5625 289.082031 253.738281 289.15625 253.933594 C 289.21875 254.109375 289.015625 254.414062 288.898438 254.636719 C 288.851562 254.722656 288.726562 254.78125 288.632812 254.84375 C 284.109375 257.667969 279.371094 259.921875 273.933594 260.214844 C 272.539062 260.292969 271.367188 260.71875 270.199219 261.449219 C 267.132812 263.363281 263.84375 264.765625 260.238281 265.328125 C 256.597656 265.898438 253.070312 265.472656 249.78125 263.800781 C 245.601562 261.660156 242.972656 258.25 241.882812 253.671875 C 241.824219 253.453125 242.027344 253.183594 242.113281 252.925781 C 242.332031 253.085938 242.585938 253.203125 242.738281 253.394531 C 242.871094 253.558594 242.890625 253.824219 242.949219 254.042969 C 244.703125 260.703125 250.84375 264.84375 257.925781 264.621094 C 259.195312 264.578125 260.175781 264.363281 260.984375 263.144531 C 262.933594 260.269531 265.714844 258.175781 268.386719 255.992188 C 269.359375 255.1875 270.316406 254.382812 271.3125 253.625 C 271.554688 253.433594 271.953125 253.453125 272.277344 253.371094 C 272.285156 253.691406 272.390625 254.03125 272.292969 254.308594 C 271.554688 256.355469 270.175781 257.96875 268.703125 259.515625 C 267.59375 260.671875 266.390625 261.761719 265.25 262.949219 C 266.039062 262.585938 266.839844 262.234375 267.605469 261.828125 C 270.929688 260.113281 273.949219 257.953125 276.867188 255.632812 C 277.007812 255.515625 277.152344 255.386719 277.230469 255.238281 C 278.550781 252.566406 280.070312 250.019531 281.925781 247.707031 C 283.359375 245.933594 284.902344 244.25 286.421875 242.550781 C 286.582031 242.367188 286.964844 242.359375 287.234375 242.265625 C 287.246094 242.539062 287.367188 242.886719 287.257812 243.097656 C 286.238281 245.105469 285.175781 247.105469 284.238281 249.199219 C 284.746094 248.707031 285.28125 248.230469 285.78125 247.722656 C 289.425781 244.011719 293.027344 240.261719 296.738281 236.601562 C 298.535156 234.828125 300.539062 233.257812 302.457031 231.613281 C 302.710938 231.398438 302.851562 231.21875 302.742188 230.878906 C 302.449219 229.96875 302.382812 229.035156 301.75 228.167969 C 298.703125 223.984375 296.820312 219.292969 296.125 214.148438 C 296.113281 214.078125 296.089844 214.003906 296.101562 213.949219 C 296.207031 213.625 296.316406 213.300781 296.425781 212.996094 C 296.699219 213.171875 297.046875 213.289062 297.199219 213.542969 C 298.445312 215.585938 299.660156 217.636719 300.839844 219.628906 C 300.8125 219.710938 300.859375 219.625 300.859375 219.5625 C 300.316406 214.242188 299.863281 208.925781 299.199219 203.625 C 298.601562 198.800781 297.453125 194.097656 295.113281 189.769531 C 292.378906 184.691406 288.625 180.535156 283.898438 177.242188 C 283.832031 177.191406 283.738281 177.160156 283.574219 177.074219 C 283.230469 177.917969 282.914062 178.761719 282.523438 179.570312 C 279.207031 186.480469 274.085938 191.152344 266.289062 192.277344 C 263.425781 192.691406 260.710938 192.121094 258.320312 190.335938 C 254.84375 187.726562 253.441406 182.480469 255.269531 178.5625 C 257.429688 173.953125 261.292969 171.664062 266.144531 170.890625 C 269.777344 170.296875 273.296875 171.019531 276.652344 172.378906 C 278.628906 173.179688 280.496094 174.25 282.410156 175.203125 C 282.597656 175.300781 282.769531 175.390625 283.105469 175.566406 C 283.378906 174.132812 283.648438 172.773438 283.898438 171.421875 C 283.914062 171.335938 283.816406 171.160156 283.71875 171.105469 C 281.820312 170.003906 280.628906 168.242188 279.378906 166.535156 C 278.117188 164.816406 277.0625 162.972656 276.289062 160.988281 C 276.167969 160.671875 276.261719 160.28125 276.257812 159.929688 C 276.605469 160.019531 277.023438 160.03125 277.285156 160.230469 C 280.027344 162.28125 282.253906 164.773438 283.835938 167.839844 C 283.890625 167.945312 283.949219 168.042969 284.027344 168.160156 C 284.082031 168.09375 284.136719 168.042969 284.132812 167.996094 C 284.070312 164.492188 283.625 161.070312 281.980469 157.910156 C 281.359375 156.714844 280.5 155.855469 279.277344 155.152344 C 276.285156 153.429688 273.445312 151.441406 271.871094 148.1875 C 271.773438 147.976562 271.621094 147.789062 271.59375 147.570312 C 271.574219 147.367188 271.597656 147.082031 271.722656 146.957031 C 271.84375 146.847656 272.152344 146.835938 272.332031 146.914062 C 274.160156 147.632812 275.6875 148.8125 277.210938 150.035156 C 278.578125 151.128906 279.777344 152.355469 280.652344 153.882812 C 281.382812 155.167969 282.167969 156.410156 282.847656 157.730469 C 283.324219 158.660156 283.6875 159.652344 284.089844 160.574219 C 284.453125 159.421875 284.789062 158.210938 285.230469 157.035156 C 285.464844 156.402344 285.828125 155.804688 286.226562 155.253906 C 286.390625 155.027344 286.847656 154.757812 287.046875 154.832031 C 287.304688 154.9375 287.617188 155.335938 287.636719 155.628906 C 287.691406 157.03125 287.851562 158.472656 287.621094 159.847656 C 287.164062 162.558594 286.605469 165.28125 285.304688 167.773438 C 285.15625 168.058594 285.105469 168.425781 285.105469 168.757812 C 285.105469 170.679688 284.773438 172.558594 284.351562 174.417969 C 284.296875 174.644531 284.277344 174.886719 284.175781 175.085938 C 283.78125 175.871094 284.089844 176.300781 284.769531 176.785156 C 292.398438 182.242188 297.355469 189.488281 299.292969 198.71875 C 299.679688 200.597656 300.003906 202.484375 300.363281 204.359375 C 300.617188 203.027344 300.867188 201.675781 301.148438 200.324219 C 301.699219 197.675781 302.601562 195.136719 303.871094 192.738281 C 304.011719 192.464844 304.382812 192.328125 304.636719 192.117188 C 304.78125 192.410156 305.070312 192.703125 305.070312 193.003906 C 305.070312 197.105469 304.820312 201.171875 303.433594 205.085938 C 302.789062 206.890625 302.058594 208.65625 301.460938 210.488281 C 301.226562 211.203125 301.152344 212.015625 301.199219 212.765625 C 301.640625 218.550781 302.285156 224.3125 303.523438 229.992188 C 303.542969 230.226562 303.609375 230.464844 303.628906 230.570312 Z M 282.742188 176.558594 C 282.605469 176.457031 282.519531 176.378906 282.429688 176.316406 C 278.324219 173.761719 273.972656 171.925781 269.078125 171.699219 C 266.816406 171.589844 264.609375 171.949219 262.535156 172.898438 C 259.484375 174.300781 257.03125 176.3125 255.871094 179.585938 C 254.214844 184.289062 256.949219 189.664062 261.742188 191.050781 C 264.589844 191.878906 267.414062 191.574219 270.121094 190.464844 C 276.527344 187.867188 280.546875 183.078125 282.742188 176.558594 Z M 317.367188 229.929688 C 315.914062 229.121094 314.476562 228.765625 312.945312 228.738281 C 309.710938 228.65625 306.894531 229.878906 304.25 231.585938 C 304.105469 231.683594 304.003906 232.058594 304.054688 232.257812 C 304.601562 234.261719 305.125 236.273438 305.78125 238.242188 C 306.609375 240.695312 307.648438 243.050781 309.425781 244.992188 C 313.105469 249.015625 319.933594 248.894531 322.386719 242.210938 C 324.058594 237.660156 321.636719 232.164062 317.367188 229.929688 Z M 304.074219 194.519531 C 302.34375 197.523438 300.65625 206.089844 301.34375 207.996094 C 303.222656 203.773438 304.074219 199.3125 304.074219 194.519531 Z M 286.894531 254.753906 C 282.753906 255.585938 278.824219 256.921875 275.226562 259.191406 C 279.484375 258.703125 283.269531 256.929688 286.894531 254.753906 Z M 270.652344 255.550781 C 269.136719 256.429688 262.789062 261.722656 261.636719 263.863281 C 263.75 263.410156 269.460938 258.160156 270.652344 255.550781 Z M 301.78125 226.480469 C 301.167969 222.53125 299.527344 218.972656 297.390625 215.648438 C 298.085938 219.5625 299.53125 223.1875 301.78125 226.480469 Z M 286.726562 156.226562 C 284.976562 159.238281 284.710938 162.492188 285.132812 165.867188 C 286.140625 162.734375 287.105469 159.597656 286.726562 156.226562 Z M 283.730469 170.023438 C 283.230469 167.757812 279.546875 162.835938 277.609375 161.835938 C 279.300781 164.960938 281.109375 167.800781 283.730469 170.023438 Z M 273.179688 148.367188 C 273.960938 150.242188 278.339844 154.078125 279.921875 154.339844 C 278.28125 151.601562 275.75 149.964844 273.179688 148.367188 Z M 284.835938 245.917969 C 282.523438 248.164062 280.734375 250.773438 279.25 253.609375 C 281.898438 251.621094 283.371094 248.777344 284.835938 245.917969 Z M 293.742188 242.386719 C 295.796875 241.539062 297.6875 240.367188 299.457031 239.003906 C 297.3125 239.726562 295.457031 240.917969 293.742188 242.386719 Z M 287.121094 190.097656 C 291.007812 192.257812 293.714844 195.425781 295.308594 199.554688 C 295.386719 199.769531 295.46875 200 295.453125 200.214844 C 295.429688 200.40625 295.320312 200.648438 295.148438 200.765625 C 295.050781 200.824219 294.761719 200.71875 294.652344 200.601562 C 292.449219 198.359375 290.246094 196.117188 288.078125 193.847656 C 287.140625 192.867188 286.257812 191.808594 285.410156 190.75 C 285.21875 190.507812 285.238281 190.109375 285.175781 189.777344 C 285.503906 189.757812 285.855469 189.6875 286.171875 189.742188 C 286.507812 189.792969 286.8125 189.96875 287.121094 190.097656 Z M 287.269531 191.296875 C 287.210938 191.34375 287.148438 191.40625 287.101562 191.460938 C 289.242188 193.667969 291.375 195.890625 293.527344 198.105469 C 292.203125 195.089844 289.980469 192.949219 287.269531 191.296875 Z M 260.609375 148.558594 C 263.433594 150.445312 266.0625 152.390625 267.933594 155.167969 C 268.453125 155.925781 268.816406 156.796875 269.214844 157.632812 C 269.382812 157.976562 269.082031 158.277344 268.710938 158.175781 C 268.5625 158.128906 268.410156 158.050781 268.289062 157.957031 C 266.394531 156.394531 264.402344 154.929688 262.621094 153.238281 C 261.492188 152.175781 260.667969 150.796875 259.738281 149.523438 C 259.59375 149.320312 259.570312 148.820312 259.71875 148.691406 C 259.894531 148.53125 260.300781 148.601562 260.609375 148.558594 Z M 261.636719 150.453125 C 262.117188 151.792969 265.914062 155.355469 267.347656 155.808594 C 265.808594 153.597656 263.832031 151.949219 261.636719 150.453125 Z M 297.28125 170.945312 C 297.320312 170.839844 297.34375 170.707031 297.414062 170.636719 C 297.597656 170.464844 297.851562 170.15625 298.007812 170.191406 C 298.238281 170.230469 298.527344 170.523438 298.578125 170.757812 C 298.753906 171.714844 298.96875 172.695312 298.933594 173.667969 C 298.839844 175.894531 298.59375 178.113281 298.453125 180.34375 C 298.410156 180.9375 298.546875 181.546875 298.5625 182.152344 C 298.558594 182.371094 298.476562 182.707031 298.324219 182.785156 C 298.191406 182.859375 297.8125 182.738281 297.703125 182.585938 C 297.4375 182.195312 297.167969 181.769531 297.046875 181.3125 C 296.085938 177.84375 296.179688 174.375 297.28125 170.945312 Z M 297.585938 179.257812 C 297.984375 176.992188 298.210938 174.714844 297.847656 172.425781 C 297.199219 174.6875 297.328125 176.980469 297.585938 179.257812 Z M 309.351562 247.632812 C 309.871094 247.875 310.550781 248.054688 310.410156 248.773438 C 310.273438 249.425781 309.558594 249.257812 309.0625 249.296875 C 305.941406 249.574219 302.945312 249 300.074219 247.734375 C 299.808594 247.613281 299.5 247.292969 299.476562 247.042969 C 299.425781 246.59375 299.871094 246.523438 300.253906 246.488281 C 303.375 246.101562 306.425781 246.355469 309.351562 247.632812 Z M 308.632812 248.316406 C 306.417969 247.425781 304.136719 247.082031 301.773438 247.378906 C 304 248.132812 306.269531 248.578125 308.632812 248.316406 Z M 319.242188 222.21875 C 318.324219 223.066406 317.472656 223.972656 316.488281 224.738281 C 315.15625 225.777344 313.605469 226.417969 311.917969 226.574219 C 311.667969 226.601562 311.394531 226.429688 311.121094 226.347656 C 311.230469 226.074219 311.257812 225.726562 311.449219 225.542969 C 313.390625 223.605469 315.777344 222.363281 318.316406 221.421875 C 318.550781 221.335938 318.875 221.441406 319.117188 221.554688 C 319.214844 221.605469 319.195312 221.910156 319.242188 222.21875 Z M 313.035156 225.25 C 313.070312 225.300781 313.101562 225.363281 313.125 225.410156 C 314.375 225.195312 316.492188 223.886719 316.933594 222.890625 C 315.640625 223.679688 314.34375 224.46875 313.035156 225.25 Z M 313.035156 225.25 " fill-opacity="1" fill-rule="nonzero"/></g></g></g></g><g clip-path="url(#e8a31e05f7)"><g clip-path="url(#6ba38c3e2a)"><g clip-path="url(#ef74dc4e9f)"><g clip-path="url(#89592b3a3a)"><path fill="#000000" d="M 88.082031 192.414062 C 86.402344 193.523438 84.808594 194.734375 83.078125 195.667969 C 80.46875 197.082031 77.671875 197.398438 74.789062 196.605469 C 69.464844 195.144531 65.789062 189.421875 66.503906 184.582031 C 67.128906 180.332031 70.183594 176.585938 75.019531 176.726562 C 77.519531 176.804688 79.613281 177.792969 81.386719 179.503906 C 83.648438 181.667969 85.1875 184.328125 86.617188 187.074219 C 87.195312 188.183594 87.710938 189.320312 88.304688 190.539062 C 91.148438 187.535156 93.335938 184.136719 95.507812 180.707031 C 95.433594 180.757812 95.347656 180.804688 95.285156 180.859375 C 93.617188 182.644531 91.609375 184.007812 89.574219 185.316406 C 89.285156 185.503906 88.980469 185.6875 88.664062 185.769531 C 88.445312 185.816406 88.101562 185.742188 87.941406 185.59375 C 87.832031 185.484375 87.933594 185.148438 87.972656 184.914062 C 87.988281 184.816406 88.09375 184.71875 88.160156 184.636719 C 90.5625 181.789062 93.242188 179.273438 96.445312 177.339844 C 96.835938 177.109375 97.242188 176.835938 97.667969 176.734375 C 98.332031 176.570312 98.664062 176.101562 99.023438 175.597656 C 101.679688 171.863281 104.335938 168.128906 107.050781 164.4375 C 107.871094 163.328125 108.867188 162.363281 109.75 161.285156 C 108.707031 161.976562 107.699219 162.75 106.59375 163.351562 C 104.378906 164.53125 102.121094 165.625 99.871094 166.722656 C 99.507812 166.90625 99.097656 167.011719 98.691406 167.050781 C 98.453125 167.066406 98.09375 166.953125 97.984375 166.777344 C 97.890625 166.617188 98.035156 166.28125 98.109375 166.039062 C 98.136719 165.945312 98.25 165.863281 98.332031 165.785156 C 102.25 162.171875 106.492188 159.082031 111.78125 157.785156 C 113.140625 157.453125 114.210938 156.816406 115.222656 155.882812 C 117.882812 153.433594 120.855469 151.445312 124.292969 150.226562 C 127.765625 148.992188 131.3125 148.757812 134.851562 149.792969 C 139.355469 151.121094 142.570312 153.988281 144.488281 158.28125 C 144.585938 158.488281 144.4375 158.792969 144.398438 159.058594 C 144.15625 158.941406 143.886719 158.875 143.699219 158.714844 C 143.539062 158.578125 143.46875 158.324219 143.371094 158.117188 C 140.417969 151.898438 133.617188 148.964844 126.695312 150.492188 C 125.457031 150.773438 124.535156 151.164062 123.960938 152.507812 C 122.582031 155.699219 120.234375 158.269531 118.015625 160.910156 C 117.207031 161.878906 116.414062 162.851562 115.578125 163.777344 C 115.375 164.007812 114.980469 164.0625 114.671875 164.203125 C 114.609375 163.890625 114.441406 163.578125 114.488281 163.285156 C 114.832031 161.140625 115.890625 159.300781 117.050781 157.503906 C 117.925781 156.164062 118.90625 154.871094 119.808594 153.492188 C 119.101562 153.996094 118.378906 154.492188 117.703125 155.03125 C 114.753906 157.332031 112.183594 160.011719 109.746094 162.835938 C 109.628906 162.972656 109.511719 163.128906 109.460938 163.289062 C 108.660156 166.15625 107.636719 168.941406 106.242188 171.558594 C 105.160156 173.566406 103.957031 175.507812 102.777344 177.457031 C 102.65625 177.667969 102.28125 177.746094 102.03125 177.886719 C 101.96875 177.621094 101.789062 177.300781 101.855469 177.074219 C 102.488281 174.914062 103.160156 172.75 103.695312 170.519531 C 103.285156 171.09375 102.847656 171.664062 102.449219 172.257812 C 99.554688 176.578125 96.710938 180.929688 93.742188 185.210938 C 92.304688 187.285156 90.625 189.199219 89.046875 191.175781 C 88.835938 191.433594 88.730469 191.632812 88.898438 191.949219 C 89.355469 192.789062 89.59375 193.695312 90.375 194.429688 C 94.144531 197.972656 96.863281 202.238281 98.5 207.164062 C 98.523438 207.230469 98.5625 207.300781 98.558594 207.355469 C 98.511719 207.695312 98.46875 208.03125 98.414062 208.351562 C 98.117188 208.230469 97.753906 208.179688 97.558594 207.957031 C 95.953125 206.183594 94.378906 204.386719 92.851562 202.652344 C 92.863281 202.566406 92.832031 202.660156 92.84375 202.722656 C 94.363281 207.847656 95.789062 212.988281 97.425781 218.074219 C 98.90625 222.703125 100.90625 227.113281 104.003906 230.9375 C 107.632812 235.417969 112.089844 238.808594 117.34375 241.167969 C 117.421875 241.207031 117.519531 241.222656 117.691406 241.277344 C 117.878906 240.382812 118.03125 239.492188 118.265625 238.628906 C 120.246094 231.222656 124.414062 225.6875 131.867188 223.132812 C 134.605469 222.199219 137.378906 222.257812 140.058594 223.570312 C 143.957031 225.488281 146.304688 230.382812 145.234375 234.574219 C 143.964844 239.503906 140.59375 242.46875 135.96875 244.128906 C 132.507812 245.378906 128.917969 245.324219 125.367188 244.609375 C 123.273438 244.1875 121.242188 243.480469 119.183594 242.898438 C 118.984375 242.839844 118.796875 242.78125 118.4375 242.671875 C 118.429688 244.128906 118.417969 245.515625 118.421875 246.890625 C 118.421875 246.976562 118.550781 247.132812 118.65625 247.167969 C 120.726562 247.898438 122.222656 249.40625 123.769531 250.859375 C 125.328125 252.3125 126.703125 253.929688 127.832031 255.734375 C 128.007812 256.023438 127.988281 256.425781 128.058594 256.769531 C 127.699219 256.746094 127.285156 256.808594 126.992188 256.664062 C 123.917969 255.15625 121.269531 253.121094 119.148438 250.398438 C 119.074219 250.304688 118.996094 250.222656 118.898438 250.117188 C 118.859375 250.195312 118.8125 250.253906 118.828125 250.300781 C 119.535156 253.730469 120.609375 257.011719 122.804688 259.816406 C 123.636719 260.871094 124.640625 261.558594 125.972656 262.023438 C 129.234375 263.160156 132.390625 264.589844 134.542969 267.496094 C 134.675781 267.683594 134.859375 267.84375 134.929688 268.054688 C 134.988281 268.246094 135.015625 268.535156 134.914062 268.675781 C 134.816406 268.808594 134.515625 268.878906 134.324219 268.835938 C 132.394531 268.464844 130.675781 267.589844 128.953125 266.671875 C 127.40625 265.847656 126 264.863281 124.859375 263.523438 C 123.902344 262.398438 122.902344 261.320312 121.988281 260.148438 C 121.347656 259.328125 120.808594 258.417969 120.242188 257.585938 C 120.097656 258.785156 119.992188 260.039062 119.777344 261.273438 C 119.660156 261.941406 119.417969 262.597656 119.128906 263.210938 C 119.007812 263.464844 118.609375 263.8125 118.398438 263.777344 C 118.125 263.722656 117.746094 263.386719 117.671875 263.101562 C 117.359375 261.734375 116.933594 260.347656 116.90625 258.953125 C 116.851562 256.203125 116.894531 253.425781 117.714844 250.738281 C 117.808594 250.429688 117.789062 250.058594 117.730469 249.734375 C 117.371094 247.839844 117.351562 245.9375 117.421875 244.027344 C 117.433594 243.796875 117.40625 243.554688 117.472656 243.339844 C 117.714844 242.496094 117.332031 242.128906 116.574219 241.78125 C 108.066406 237.832031 101.851562 231.625 98.242188 222.910156 C 97.511719 221.140625 96.847656 219.34375 96.148438 217.566406 C 96.140625 218.925781 96.148438 220.300781 96.121094 221.679688 C 96.070312 224.382812 95.652344 227.046875 94.847656 229.636719 C 94.757812 229.929688 94.421875 230.136719 94.210938 230.390625 C 94.011719 230.128906 93.675781 229.894531 93.621094 229.597656 C 92.863281 225.566406 92.355469 221.527344 92.992188 217.425781 C 93.292969 215.527344 93.6875 213.660156 93.933594 211.75 C 94.027344 211.003906 93.957031 210.191406 93.769531 209.464844 C 92.261719 203.859375 90.566406 198.316406 88.296875 192.960938 C 88.234375 192.738281 88.125 192.515625 88.082031 192.414062 Z M 118.609375 241.628906 C 118.761719 241.703125 118.859375 241.761719 118.960938 241.808594 C 123.464844 243.5625 128.082031 244.558594 132.9375 243.875 C 135.175781 243.566406 137.277344 242.800781 139.140625 241.484375 C 141.878906 239.542969 143.921875 237.109375 144.457031 233.679688 C 145.210938 228.75 141.527344 223.972656 136.5625 223.496094 C 133.609375 223.210938 130.890625 224.035156 128.433594 225.625 C 122.621094 229.363281 119.558594 234.816406 118.609375 241.628906 Z M 74.703125 195.585938 C 76.28125 196.109375 77.761719 196.195312 79.269531 195.941406 C 82.464844 195.421875 85.003906 193.699219 87.289062 191.53125 C 87.414062 191.40625 87.441406 191.023438 87.355469 190.832031 C 86.449219 188.964844 85.558594 187.085938 84.550781 185.273438 C 83.28125 183.015625 81.824219 180.890625 79.71875 179.316406 C 75.359375 176.042969 68.671875 177.425781 67.496094 184.445312 C 66.695312 189.230469 70.09375 194.179688 74.703125 195.585938 Z M 94.320312 227.925781 C 95.464844 224.652344 95.539062 215.921875 94.507812 214.175781 C 93.445312 218.671875 93.433594 223.214844 94.320312 227.925781 Z M 100.054688 165.550781 C 103.96875 163.96875 107.582031 161.925781 110.699219 159.035156 C 106.605469 160.300781 103.214844 162.742188 100.054688 165.550781 Z M 115.871094 161.761719 C 117.199219 160.617188 122.457031 154.242188 123.191406 151.925781 C 121.199219 152.761719 116.558594 158.976562 115.871094 161.761719 Z M 90.65625 196.09375 C 91.992188 199.859375 94.261719 203.050781 96.980469 205.925781 C 95.570312 202.207031 93.480469 198.910156 90.65625 196.09375 Z M 118.457031 262.347656 C 119.617188 259.0625 119.277344 255.816406 118.234375 252.578125 C 117.824219 255.839844 117.457031 259.105469 118.457031 262.347656 Z M 118.84375 248.230469 C 119.757812 250.367188 124.289062 254.523438 126.375 255.144531 C 124.136719 252.386719 121.832031 249.929688 118.84375 248.230469 Z M 133.222656 267.5625 C 132.105469 265.863281 127.09375 262.902344 125.488281 262.941406 C 127.609375 265.328125 130.402344 266.46875 133.222656 267.5625 Z M 103.714844 173.855469 C 105.570312 171.222656 106.847656 168.324219 107.78125 165.261719 C 105.546875 167.707031 104.625 170.773438 103.714844 173.855469 Z M 95.613281 178.972656 C 93.753906 180.1875 92.113281 181.6875 90.625 183.355469 C 92.597656 182.246094 94.199219 180.734375 95.613281 178.972656 Z M 111.796875 229.132812 C 107.582031 227.730469 104.332031 225.117188 102.003906 221.355469 C 101.886719 221.160156 101.761719 220.945312 101.738281 220.734375 C 101.726562 220.539062 101.789062 220.28125 101.9375 220.136719 C 102.019531 220.058594 102.324219 220.109375 102.457031 220.207031 C 105.035156 222 107.613281 223.792969 110.164062 225.625 C 111.269531 226.414062 112.328125 227.292969 113.359375 228.175781 C 113.589844 228.378906 113.644531 228.773438 113.769531 229.089844 C 113.453125 229.167969 113.121094 229.300781 112.796875 229.304688 C 112.457031 229.320312 112.128906 229.203125 111.796875 229.132812 Z M 111.433594 227.984375 C 111.480469 227.925781 111.53125 227.851562 111.566406 227.789062 C 109.054688 226.015625 106.546875 224.230469 104.019531 222.453125 C 105.878906 225.167969 108.460938 226.859375 111.433594 227.984375 Z M 145.542969 265.046875 C 142.414062 263.714844 139.472656 262.292969 137.117188 259.910156 C 136.46875 259.257812 135.949219 258.472656 135.40625 257.722656 C 135.175781 257.417969 135.414062 257.066406 135.800781 257.097656 C 135.953125 257.113281 136.117188 257.164062 136.253906 257.234375 C 138.40625 258.417969 140.632812 259.492188 142.695312 260.820312 C 144.003906 261.65625 145.070312 262.859375 146.214844 263.9375 C 146.398438 264.109375 146.511719 264.597656 146.390625 264.753906 C 146.246094 264.941406 145.835938 264.949219 145.542969 265.046875 Z M 144.183594 263.378906 C 143.460938 262.148438 139.070312 259.351562 137.578125 259.171875 C 139.5 261.058594 141.746094 262.3125 144.183594 263.378906 Z M 105.355469 249.835938 C 105.339844 249.945312 105.339844 250.078125 105.285156 250.164062 C 105.136719 250.367188 104.941406 250.71875 104.785156 250.710938 C 104.550781 250.714844 104.210938 250.480469 104.117188 250.261719 C 103.765625 249.351562 103.375 248.429688 103.234375 247.464844 C 102.910156 245.261719 102.742188 243.03125 102.46875 240.816406 C 102.402344 240.226562 102.152344 239.652344 102.027344 239.058594 C 101.988281 238.84375 102.007812 238.496094 102.140625 238.390625 C 102.257812 238.296875 102.652344 238.34375 102.789062 238.472656 C 103.125 238.808594 103.464844 239.175781 103.671875 239.601562 C 105.257812 242.835938 105.804688 246.257812 105.355469 249.835938 Z M 103.523438 241.722656 C 103.550781 244.023438 103.746094 246.304688 104.527344 248.484375 C 104.746094 246.140625 104.199219 243.914062 103.523438 241.722656 Z M 79.304688 176.703125 C 78.75 176.566406 78.046875 176.511719 78.050781 175.78125 C 78.066406 175.113281 78.800781 175.148438 79.277344 175.015625 C 82.296875 174.167969 85.347656 174.175781 88.402344 174.886719 C 88.6875 174.960938 89.046875 175.214844 89.117188 175.457031 C 89.25 175.890625 88.824219 176.039062 88.457031 176.148438 C 85.460938 177.105469 82.417969 177.417969 79.304688 176.703125 Z M 79.882812 175.902344 C 82.226562 176.367188 84.53125 176.28125 86.796875 175.554688 C 84.472656 175.226562 82.15625 175.207031 79.882812 175.902344 Z M 74.289062 203.511719 C 75.03125 202.511719 75.703125 201.457031 76.527344 200.527344 C 77.644531 199.257812 79.046875 198.34375 80.679688 197.875 C 80.921875 197.800781 81.222656 197.921875 81.503906 197.949219 C 81.445312 198.238281 81.484375 198.589844 81.332031 198.804688 C 79.78125 201.066406 77.667969 202.730469 75.34375 204.125 C 75.128906 204.25 74.792969 204.207031 74.535156 204.140625 C 74.429688 204.109375 74.390625 203.804688 74.289062 203.511719 Z M 79.828125 199.382812 C 79.78125 199.339844 79.738281 199.285156 79.707031 199.246094 C 78.523438 199.6875 76.683594 201.363281 76.429688 202.425781 C 77.558594 201.410156 78.6875 200.394531 79.828125 199.382812 Z M 79.828125 199.382812 " fill-opacity="1" fill-rule="nonzero"/></g></g></g></g><g fill="#000000" fill-opacity="1"><g transform="translate(132.647985, 206.048643)"><g><path d="M 3.152344 1.976562 C 3.6875 1.871094 4.167969 1.710938 4.703125 1.550781 C 6.253906 1.015625 7.644531 0.160156 8.980469 -0.75 C 9.25 -0.960938 9.515625 -1.230469 9.890625 -1.390625 C 10.210938 -1.550781 10.636719 -1.335938 11.011719 -1.28125 C 12.507812 -1.121094 14.058594 -0.910156 15.558594 -0.589844 C 17.269531 -0.214844 19.03125 0.105469 20.796875 0.375 C 22.292969 0.589844 23.84375 0.640625 25.339844 0.425781 C 28.601562 -0.0546875 31.488281 -1.390625 34 -3.527344 C 35.816406 -5.078125 37.421875 -6.789062 38.867188 -8.714844 C 40.84375 -11.226562 42.554688 -13.898438 44.210938 -16.625 C 44.265625 -16.734375 44.371094 -16.894531 44.425781 -17.054688 C 44.585938 -17.375 44.480469 -17.589844 44.15625 -17.695312 C 44.105469 -17.75 43.996094 -17.75 43.945312 -17.640625 C 43.890625 -17.535156 43.785156 -17.429688 43.675781 -17.320312 L 41.484375 -14.007812 C 40.203125 -12.136719 38.972656 -10.265625 37.527344 -8.554688 C 35.980469 -6.734375 34.269531 -4.972656 32.34375 -3.582031 C 29.347656 -1.335938 25.929688 -0.214844 22.1875 -0.265625 C 20.796875 -0.265625 19.460938 -0.535156 18.070312 -0.75 C 15.769531 -1.175781 13.472656 -1.710938 11.121094 -1.976562 C 11.011719 -1.976562 10.851562 -1.976562 10.851562 -2.136719 L 10.851562 -2.191406 C 11.011719 -2.296875 11.121094 -2.460938 11.226562 -2.566406 C 12.722656 -3.847656 14.113281 -5.238281 15.394531 -6.734375 C 19.03125 -10.800781 22.558594 -15.023438 26.035156 -19.191406 C 28.28125 -21.863281 30.527344 -24.589844 32.929688 -27.15625 C 35.015625 -29.347656 37.15625 -31.433594 39.453125 -33.414062 C 40.308594 -34.109375 41.164062 -34.75 41.964844 -35.445312 C 42.179688 -35.605469 42.339844 -35.765625 42.5 -35.980469 C 42.609375 -36.03125 42.609375 -36.140625 42.554688 -36.246094 C 42.179688 -36.671875 41.753906 -37.101562 41.058594 -36.941406 C 40.789062 -36.886719 40.46875 -36.886719 40.203125 -36.832031 C 37.261719 -36.246094 34.320312 -35.710938 31.433594 -35.070312 C 28.65625 -34.535156 25.929688 -33.894531 23.203125 -33.144531 C 19.140625 -31.96875 15.449219 -30.097656 12.082031 -27.640625 C 10.90625 -26.785156 9.835938 -25.820312 8.875 -24.804688 C 8.019531 -23.84375 7.269531 -22.773438 6.734375 -21.542969 C 6.46875 -20.847656 6.253906 -20.101562 6.253906 -19.300781 C 6.308594 -17.800781 7.269531 -16.894531 8.554688 -16.519531 C 8.929688 -16.414062 9.410156 -16.414062 9.835938 -16.574219 C 9.890625 -16.625 9.945312 -16.679688 9.890625 -16.734375 C 9.890625 -16.785156 9.835938 -16.785156 9.78125 -16.785156 C 9.460938 -16.785156 9.089844 -16.734375 8.765625 -16.734375 C 8.074219 -16.734375 7.539062 -17.054688 7.21875 -17.695312 C 7.003906 -18.175781 6.894531 -18.65625 6.949219 -19.246094 C 7.003906 -20.367188 7.484375 -21.332031 8.074219 -22.238281 C 8.929688 -23.683594 10.105469 -24.804688 11.386719 -25.820312 C 14.328125 -28.121094 17.589844 -29.9375 21.117188 -31.328125 C 22.828125 -31.96875 24.539062 -32.503906 26.355469 -32.929688 C 30.898438 -34 35.496094 -34.910156 40.09375 -35.816406 C 40.253906 -35.871094 40.414062 -35.925781 40.574219 -35.765625 C 40.523438 -35.605469 40.308594 -35.496094 40.203125 -35.390625 C 36.886719 -32.878906 33.945312 -29.992188 31.167969 -26.945312 C 28.761719 -24.269531 26.460938 -21.492188 24.21875 -18.765625 C 21.0625 -14.914062 17.855469 -11.121094 14.542969 -7.378906 C 12.992188 -5.667969 11.332031 -4.007812 9.570312 -2.511719 C 9.300781 -2.296875 9.035156 -2.191406 8.660156 -2.246094 C 7.378906 -2.351562 6.039062 -2.460938 4.757812 -2.296875 C 3.847656 -2.191406 2.941406 -2.085938 2.136719 -1.710938 C 1.496094 -1.445312 0.960938 -1.121094 0.535156 -0.589844 C 0.320312 -0.375 0.160156 -0.160156 0.0546875 0.105469 C -0.0546875 0.535156 0 0.855469 0.320312 1.121094 C 1.121094 1.765625 2.03125 2.191406 3.152344 1.976562 Z M 1.335938 1.335938 C 0.855469 1.28125 0.800781 0.960938 0.910156 0.640625 C 0.960938 0.425781 1.070312 0.265625 1.175781 0.105469 C 1.445312 -0.214844 1.765625 -0.480469 2.136719 -0.695312 C 2.566406 -0.960938 3.046875 -1.175781 3.582031 -1.335938 C 4.972656 -1.65625 6.414062 -1.765625 7.859375 -1.605469 L 8.074219 -1.605469 C 8.074219 -1.550781 8.074219 -1.550781 8.179688 -1.496094 C 7.699219 -1.070312 7.21875 -0.75 6.683594 -0.480469 C 5.453125 0.320312 4.167969 0.960938 2.726562 1.28125 C 2.246094 1.390625 1.816406 1.390625 1.335938 1.335938 Z M 1.335938 1.335938 "/></g></g></g><g fill="#000000" fill-opacity="1"><g transform="translate(177.546007, 206.048643)"><g><path d="M 3.046875 -8.820312 C 4.007812 -8.339844 4.0625 -8.234375 4.863281 -8.929688 C 4.972656 -9.089844 5.132812 -9.195312 5.238281 -9.355469 C 5.71875 -9.890625 6.148438 -10.371094 6.574219 -10.90625 L 11.386719 -17.105469 C 11.492188 -17.214844 11.546875 -17.320312 11.601562 -17.429688 C 11.761719 -17.640625 11.761719 -17.75 11.492188 -17.855469 C 11.226562 -17.960938 11.121094 -17.960938 10.90625 -17.75 L 10.585938 -17.375 C 9.730469 -16.304688 8.5 -14.753906 7.644531 -13.632812 C 6.734375 -12.507812 5.828125 -11.28125 4.8125 -10.210938 L 4.117188 -9.515625 C 4.007812 -9.460938 3.957031 -9.355469 3.847656 -9.460938 C 3.742188 -9.515625 3.742188 -9.621094 3.742188 -9.675781 C 3.796875 -10.15625 3.847656 -10.636719 3.957031 -11.066406 C 4.277344 -12.9375 4.863281 -14.753906 5.507812 -16.519531 C 5.828125 -17.320312 6.148438 -18.121094 6.414062 -18.925781 C 6.683594 -19.78125 6.414062 -19.78125 5.933594 -20.046875 C 5.773438 -20.15625 5.613281 -20.15625 5.453125 -20.046875 L 4.757812 -19.726562 C 4.117188 -19.40625 3.421875 -19.085938 2.726562 -18.765625 L 2.511719 -18.765625 C 2.460938 -18.816406 2.511719 -18.925781 2.511719 -18.976562 C 2.671875 -19.351562 2.886719 -19.726562 3.046875 -20.101562 C 3.476562 -21.011719 3.902344 -21.972656 4.167969 -22.988281 C 4.277344 -23.414062 4.382812 -23.789062 4.4375 -24.21875 C 4.4375 -24.699219 4.277344 -25.125 3.847656 -25.394531 C 3.421875 -25.660156 3.261719 -25.660156 2.832031 -25.339844 C 2.40625 -24.964844 2.136719 -24.484375 1.816406 -24.003906 C 1.070312 -22.613281 0.535156 -21.171875 0.160156 -19.671875 L 0 -18.710938 C -0.0546875 -18.335938 0.105469 -17.960938 0.480469 -17.75 C 0.640625 -17.695312 0.75 -17.640625 0.910156 -17.535156 C 1.496094 -17.214844 1.871094 -17.589844 2.136719 -17.695312 C 2.992188 -18.015625 3.796875 -18.445312 4.597656 -18.816406 C 4.8125 -18.925781 5.023438 -19.085938 5.292969 -19.140625 C 5.347656 -18.871094 5.238281 -18.765625 5.1875 -18.65625 L 3.902344 -15.183594 C 3.421875 -13.792969 2.992188 -12.402344 2.78125 -10.960938 C 2.671875 -10.371094 2.671875 -9.835938 2.78125 -9.300781 C 2.832031 -9.089844 2.886719 -8.929688 3.046875 -8.820312 Z M 0.960938 -18.175781 C 0.800781 -18.285156 0.855469 -18.445312 0.855469 -18.550781 C 1.121094 -20.367188 1.710938 -22.078125 2.566406 -23.683594 C 2.78125 -24.109375 3.046875 -24.484375 3.367188 -24.804688 C 3.476562 -24.859375 3.527344 -24.964844 3.636719 -24.914062 C 3.742188 -24.859375 3.742188 -24.753906 3.742188 -24.699219 C 3.796875 -24.644531 3.742188 -24.589844 3.742188 -24.429688 C 3.742188 -24.003906 3.636719 -23.523438 3.476562 -23.042969 C 3.316406 -22.507812 3.152344 -21.972656 2.941406 -21.4375 C 2.566406 -20.527344 2.136719 -19.566406 1.710938 -18.65625 C 1.65625 -18.496094 1.550781 -18.285156 1.390625 -18.230469 C 1.230469 -18.175781 1.070312 -18.121094 0.960938 -18.175781 Z M 0.960938 -18.175781 "/></g></g></g><g fill="#000000" fill-opacity="1"><g transform="translate(189.67963, 206.048643)"><g><path d="M 3.367188 -22.1875 C 3.476562 -22.1875 3.6875 -22.292969 3.742188 -22.558594 C 3.796875 -22.667969 3.796875 -22.773438 3.742188 -22.882812 C 3.636719 -23.09375 3.6875 -23.253906 3.847656 -23.414062 C 3.847656 -23.46875 3.847656 -23.523438 3.902344 -23.574219 C 3.847656 -23.628906 3.796875 -23.683594 3.742188 -23.683594 C 3.582031 -23.734375 3.421875 -23.683594 3.367188 -23.574219 C 3.152344 -23.308594 3.046875 -23.042969 2.941406 -22.71875 C 2.941406 -22.507812 3.101562 -22.292969 3.367188 -22.1875 Z M 2.886719 -13.042969 C 3.367188 -13.203125 3.847656 -13.472656 4.277344 -13.738281 C 6.039062 -14.808594 7.644531 -16.089844 9.25 -17.429688 L 9.460938 -17.640625 C 9.515625 -17.695312 9.460938 -17.800781 9.410156 -17.800781 C 9.035156 -18.121094 8.929688 -18.121094 8.660156 -17.855469 C 8.554688 -17.800781 8.445312 -17.695312 8.394531 -17.640625 C 7.164062 -16.679688 5.988281 -15.71875 4.757812 -14.808594 C 4.117188 -14.378906 3.476562 -14.007812 2.832031 -13.632812 C 2.511719 -13.523438 2.191406 -13.363281 1.871094 -13.363281 C 1.65625 -13.363281 1.550781 -13.417969 1.445312 -13.632812 C 1.335938 -14.007812 1.335938 -14.378906 1.390625 -14.753906 C 1.550781 -16.25 1.710938 -17.75 2.566406 -19.085938 C 2.621094 -19.140625 2.566406 -19.246094 2.566406 -19.300781 C 2.460938 -19.460938 2.136719 -19.566406 2.03125 -19.40625 C 1.871094 -19.246094 1.765625 -19.085938 1.65625 -18.925781 C 1.015625 -17.640625 0.640625 -16.25 0.535156 -14.808594 L 0.640625 -14.058594 C 0.695312 -13.6875 0.855469 -13.417969 1.230469 -13.203125 C 1.765625 -12.9375 2.296875 -12.832031 2.886719 -13.042969 Z M 2.886719 -13.042969 "/></g></g></g><g fill="#000000" fill-opacity="1"><g transform="translate(199.568383, 206.048643)"><g><path d="M 0.855469 -13.257812 C 0.960938 -13.203125 1.070312 -13.257812 1.175781 -13.363281 L 1.445312 -13.6875 C 1.710938 -14.113281 1.925781 -14.542969 2.191406 -15.023438 C 2.726562 -15.878906 3.152344 -16.785156 3.742188 -17.640625 C 3.902344 -17.855469 4.0625 -18.070312 4.277344 -18.285156 C 4.332031 -18.335938 4.492188 -18.285156 4.492188 -18.175781 C 4.492188 -18.070312 4.542969 -17.960938 4.542969 -17.855469 C 4.597656 -17.320312 4.652344 -16.839844 4.863281 -16.359375 C 4.972656 -15.929688 5.1875 -15.609375 5.558594 -15.34375 C 6.148438 -15.023438 6.683594 -14.808594 7.378906 -14.863281 C 8.820312 -15.023438 10.050781 -15.558594 11.121094 -16.519531 C 11.492188 -16.785156 11.816406 -17.105469 12.136719 -17.429688 C 12.242188 -17.480469 12.402344 -17.535156 12.347656 -17.695312 C 12.082031 -17.910156 11.816406 -17.960938 11.546875 -17.75 C 11.28125 -17.589844 11.066406 -17.375 10.800781 -17.160156 L 9.675781 -16.359375 C 8.714844 -15.71875 7.699219 -15.394531 6.523438 -15.289062 C 6.203125 -15.289062 5.988281 -15.394531 5.828125 -15.71875 C 5.613281 -16.089844 5.453125 -16.519531 5.398438 -16.945312 C 5.292969 -17.375 5.238281 -17.800781 5.132812 -18.230469 C 5.078125 -18.605469 4.863281 -18.871094 4.492188 -18.976562 C 4.222656 -19.085938 4.0625 -19.03125 3.902344 -18.871094 C 3.582031 -18.496094 3.316406 -18.121094 3.101562 -17.75 L 1.65625 -15.183594 C 1.496094 -14.96875 1.390625 -14.753906 1.175781 -14.433594 C 1.070312 -14.703125 1.121094 -14.808594 1.121094 -14.96875 C 1.445312 -16.839844 1.925781 -18.65625 2.621094 -20.421875 C 2.886719 -21.0625 3.101562 -21.652344 3.421875 -22.238281 C 3.476562 -22.347656 3.421875 -22.453125 3.316406 -22.558594 C 3.207031 -22.613281 3.101562 -22.558594 2.992188 -22.453125 L 2.726562 -21.972656 C 1.605469 -19.78125 0.910156 -17.535156 0.480469 -15.128906 C 0.425781 -14.703125 0.375 -14.328125 0.375 -13.898438 C 0.320312 -13.523438 0.480469 -13.363281 0.855469 -13.257812 Z M 0.855469 -13.257812 "/></g></g></g><g fill="#000000" fill-opacity="1"><g transform="translate(212.343393, 206.048643)"><g><path d="M -0.535156 -3.316406 C 0.214844 -2.992188 0.375 -3.046875 0.855469 -3.582031 C 0.910156 -3.6875 0.960938 -3.742188 1.015625 -3.796875 C 2.671875 -5.988281 3.796875 -8.339844 4.117188 -11.011719 C 4.167969 -11.386719 4.277344 -11.707031 4.492188 -11.921875 C 5.1875 -12.671875 5.773438 -13.417969 6.46875 -14.113281 C 7.429688 -15.128906 8.5 -16.144531 9.460938 -17.160156 C 9.730469 -17.429688 9.730469 -17.535156 9.355469 -17.695312 C 9.195312 -17.800781 9.089844 -17.800781 8.929688 -17.640625 L 8.714844 -17.480469 C 7.378906 -16.144531 5.988281 -14.808594 4.757812 -13.363281 C 4.652344 -13.3125 4.597656 -13.203125 4.492188 -13.097656 C 4.492188 -13.097656 4.4375 -13.042969 4.382812 -13.042969 C 4.277344 -13.042969 4.277344 -13.152344 4.277344 -13.203125 C 4.222656 -13.6875 4.222656 -14.21875 4.117188 -14.703125 C 4.007812 -15.609375 3.582031 -16.25 2.78125 -16.679688 C 2.566406 -16.734375 2.351562 -16.839844 2.191406 -16.945312 C 1.871094 -17.054688 1.710938 -17.214844 1.871094 -17.640625 C 1.925781 -17.855469 1.976562 -18.121094 2.085938 -18.335938 C 2.566406 -19.351562 3.152344 -20.316406 4.007812 -21.011719 C 4.0625 -21.0625 4.117188 -21.171875 4.117188 -21.222656 C 4.117188 -21.332031 3.957031 -21.332031 3.902344 -21.382812 C 3.742188 -21.382812 3.636719 -21.332031 3.527344 -21.277344 C 3.316406 -21.117188 3.101562 -21.011719 2.886719 -20.796875 C 2.136719 -20.101562 1.605469 -19.191406 1.175781 -18.230469 L 1.121094 -17.855469 C 1.015625 -17.535156 1.121094 -17.214844 1.445312 -17.054688 C 1.710938 -16.894531 2.03125 -16.734375 2.296875 -16.679688 C 2.726562 -16.519531 2.992188 -16.199219 3.152344 -15.824219 C 3.367188 -15.449219 3.421875 -15.074219 3.476562 -14.703125 C 3.527344 -13.898438 3.476562 -13.097656 3.421875 -12.296875 C 3.367188 -11.867188 3.207031 -11.492188 2.941406 -11.121094 C 1.925781 -9.78125 1.070312 -8.394531 0.265625 -6.949219 C -0.105469 -6.148438 -0.480469 -5.347656 -0.695312 -4.492188 C -0.800781 -4.222656 -0.800781 -4.007812 -0.800781 -3.742188 C -0.800781 -3.527344 -0.695312 -3.421875 -0.535156 -3.316406 Z M 0.160156 -4.4375 C 0.0546875 -4.542969 0.105469 -4.652344 0.160156 -4.757812 C 0.320312 -5.132812 0.425781 -5.507812 0.589844 -5.878906 C 1.121094 -7.058594 1.765625 -8.125 2.460938 -9.195312 C 2.511719 -9.25 2.566406 -9.410156 2.78125 -9.410156 C 2.621094 -8.605469 2.246094 -7.910156 1.925781 -7.21875 C 1.335938 -5.988281 0.640625 -4.917969 0.160156 -4.4375 Z M 0.160156 -4.4375 "/></g></g></g><g fill="#000000" fill-opacity="1"><g transform="translate(222.445945, 206.048643)"><g><path d="M -0.640625 -6.949219 C -0.480469 -6.894531 -0.320312 -6.949219 -0.265625 -7.164062 L -0.105469 -8.019531 C 0 -8.765625 0.320312 -9.460938 0.640625 -10.210938 C 0.695312 -10.316406 0.800781 -10.425781 1.015625 -10.371094 C 2.351562 -9.996094 3.582031 -10.371094 4.757812 -11.066406 C 5.828125 -11.707031 6.84375 -12.507812 7.804688 -13.3125 C 9.195312 -14.542969 10.476562 -15.878906 11.546875 -17.375 C 11.652344 -17.535156 11.652344 -17.589844 11.492188 -17.695312 C 11.121094 -17.855469 11.066406 -17.855469 10.800781 -17.589844 L 9.570312 -16.199219 C 8.234375 -14.753906 6.734375 -13.523438 5.1875 -12.347656 C 4.492188 -11.867188 3.796875 -11.441406 2.992188 -11.121094 C 2.460938 -10.90625 1.871094 -10.746094 1.28125 -10.800781 C 1.070312 -10.800781 1.015625 -10.90625 1.070312 -11.066406 C 1.175781 -11.28125 1.28125 -11.441406 1.335938 -11.601562 C 1.496094 -11.921875 1.710938 -12.136719 2.085938 -12.242188 C 2.671875 -12.402344 3.207031 -12.722656 3.742188 -13.152344 C 4.222656 -13.578125 4.703125 -14.058594 5.078125 -14.648438 C 5.398438 -15.023438 5.613281 -15.449219 5.773438 -15.929688 C 5.828125 -16.089844 5.878906 -16.304688 5.828125 -16.464844 C 5.828125 -16.679688 5.773438 -16.839844 5.613281 -16.894531 C 5.023438 -17.320312 4.652344 -17.320312 4.0625 -16.839844 C 3.902344 -16.734375 3.742188 -16.574219 3.582031 -16.414062 C 3.207031 -15.984375 2.832031 -15.558594 2.511719 -15.074219 C 2.085938 -14.433594 1.710938 -13.847656 1.335938 -13.203125 C 1.28125 -13.042969 1.175781 -12.9375 1.070312 -12.777344 C 1.070312 -12.777344 1.015625 -12.777344 0.960938 -12.777344 L 0.910156 -12.832031 C 0.910156 -12.9375 0.910156 -13.097656 0.960938 -13.203125 L 1.765625 -16.894531 C 1.871094 -17.320312 2.085938 -17.75 2.296875 -18.175781 C 3.636719 -20.367188 4.972656 -22.613281 6.308594 -24.859375 C 7.910156 -27.425781 9.355469 -30.097656 10.636719 -32.878906 C 11.066406 -33.839844 11.492188 -34.855469 11.761719 -35.925781 C 11.816406 -36.246094 11.867188 -36.566406 11.867188 -36.886719 C 11.867188 -37.101562 11.761719 -37.261719 11.601562 -37.367188 C 11.492188 -37.527344 11.332031 -37.582031 11.226562 -37.6875 C 10.90625 -37.902344 10.636719 -37.902344 10.316406 -37.742188 C 9.996094 -37.582031 9.730469 -37.316406 9.460938 -37.046875 C 8.980469 -36.511719 8.554688 -35.871094 8.125 -35.230469 C 7.429688 -34.054688 6.734375 -32.824219 6.09375 -31.542969 C 4.222656 -27.746094 2.78125 -23.734375 1.550781 -19.671875 C 0.910156 -17.535156 0.425781 -15.394531 -0.0546875 -13.203125 C -0.214844 -12.347656 -0.105469 -12.402344 -1.070312 -12.457031 C -1.175781 -12.457031 -1.28125 -12.457031 -1.445312 -12.507812 C -1.550781 -12.507812 -1.65625 -12.457031 -1.710938 -12.347656 C -1.710938 -12.296875 -1.710938 -12.1875 -1.65625 -12.082031 C -1.445312 -11.761719 -1.175781 -11.492188 -0.855469 -11.28125 C -0.535156 -11.066406 -0.480469 -10.851562 -0.589844 -10.53125 C -0.75 -9.675781 -0.910156 -8.820312 -1.070312 -7.964844 L -1.175781 -7.378906 C -1.175781 -7.269531 -1.121094 -7.164062 -1.015625 -7.109375 Z M 2.832031 -20.421875 C 2.886719 -20.527344 2.832031 -20.636719 2.886719 -20.6875 C 4.007812 -24.164062 5.238281 -27.640625 6.894531 -30.898438 C 7.589844 -32.34375 8.339844 -33.734375 9.140625 -35.070312 C 9.515625 -35.605469 9.890625 -36.140625 10.316406 -36.621094 C 10.53125 -36.832031 10.691406 -37.046875 10.960938 -37.15625 C 11.011719 -37.207031 11.171875 -37.15625 11.171875 -37.046875 C 11.171875 -36.78125 11.121094 -36.511719 11.066406 -36.246094 C 10.800781 -35.125 10.371094 -34.109375 9.890625 -33.039062 C 8.339844 -29.722656 6.523438 -26.515625 4.652344 -23.363281 L 3.207031 -20.847656 C 3.152344 -20.6875 3.101562 -20.527344 2.832031 -20.421875 Z M 2.246094 -13.152344 C 2.78125 -14.167969 3.316406 -14.96875 4.007812 -15.71875 C 4.277344 -16.039062 4.542969 -16.359375 4.917969 -16.519531 C 5.078125 -16.304688 4.972656 -16.144531 4.863281 -15.929688 C 4.492188 -15.023438 3.847656 -14.328125 3.101562 -13.6875 C 2.886719 -13.472656 2.671875 -13.257812 2.246094 -13.152344 Z M -0.480469 -11.652344 C -0.640625 -11.652344 -0.800781 -11.816406 -0.75 -11.921875 C -0.75 -11.976562 -0.695312 -11.976562 -0.640625 -11.976562 C -0.425781 -12.027344 -0.375 -11.921875 -0.375 -11.761719 C -0.375 -11.707031 -0.375 -11.601562 -0.480469 -11.652344 Z M -0.480469 -11.652344 "/></g></g></g><g fill="#000000" fill-opacity="1"><g transform="translate(234.472666, 206.048643)"><g><path d="M 3.367188 -22.1875 C 3.476562 -22.1875 3.6875 -22.292969 3.742188 -22.558594 C 3.796875 -22.667969 3.796875 -22.773438 3.742188 -22.882812 C 3.636719 -23.09375 3.6875 -23.253906 3.847656 -23.414062 C 3.847656 -23.46875 3.847656 -23.523438 3.902344 -23.574219 C 3.847656 -23.628906 3.796875 -23.683594 3.742188 -23.683594 C 3.582031 -23.734375 3.421875 -23.683594 3.367188 -23.574219 C 3.152344 -23.308594 3.046875 -23.042969 2.941406 -22.71875 C 2.941406 -22.507812 3.101562 -22.292969 3.367188 -22.1875 Z M 2.886719 -13.042969 C 3.367188 -13.203125 3.847656 -13.472656 4.277344 -13.738281 C 6.039062 -14.808594 7.644531 -16.089844 9.25 -17.429688 L 9.460938 -17.640625 C 9.515625 -17.695312 9.460938 -17.800781 9.410156 -17.800781 C 9.035156 -18.121094 8.929688 -18.121094 8.660156 -17.855469 C 8.554688 -17.800781 8.445312 -17.695312 8.394531 -17.640625 C 7.164062 -16.679688 5.988281 -15.71875 4.757812 -14.808594 C 4.117188 -14.378906 3.476562 -14.007812 2.832031 -13.632812 C 2.511719 -13.523438 2.191406 -13.363281 1.871094 -13.363281 C 1.65625 -13.363281 1.550781 -13.417969 1.445312 -13.632812 C 1.335938 -14.007812 1.335938 -14.378906 1.390625 -14.753906 C 1.550781 -16.25 1.710938 -17.75 2.566406 -19.085938 C 2.621094 -19.140625 2.566406 -19.246094 2.566406 -19.300781 C 2.460938 -19.460938 2.136719 -19.566406 2.03125 -19.40625 C 1.871094 -19.246094 1.765625 -19.085938 1.65625 -18.925781 C 1.015625 -17.640625 0.640625 -16.25 0.535156 -14.808594 L 0.640625 -14.058594 C 0.695312 -13.6875 0.855469 -13.417969 1.230469 -13.203125 C 1.765625 -12.9375 2.296875 -12.832031 2.886719 -13.042969 Z M 2.886719 -13.042969 "/></g></g></g><g fill="#000000" fill-opacity="1"><g transform="translate(180.103661, 224.064931)"><g><path d="M 4.328125 -5.9375 C 4.703125 -5.59375 4.890625 -5.140625 4.890625 -4.578125 C 4.890625 -4.015625 4.703125 -3.5625 4.328125 -3.21875 C 3.953125 -2.875 3.398438 -2.703125 2.671875 -2.703125 L 1.359375 -2.703125 L 1.359375 0 L 0.703125 0 L 0.703125 -6.453125 L 2.671875 -6.453125 C 3.398438 -6.453125 3.953125 -6.28125 4.328125 -5.9375 Z M 1.359375 -3.234375 L 2.671875 -3.234375 C 3.703125 -3.234375 4.21875 -3.679688 4.21875 -4.578125 C 4.21875 -5.472656 3.703125 -5.921875 2.671875 -5.921875 L 1.359375 -5.921875 Z M 1.359375 -3.234375 "/></g></g></g><g fill="#000000" fill-opacity="1"><g transform="translate(187.738442, 224.064931)"><g><path d="M 4.8125 -6.453125 L 5.46875 -6.453125 L 5.46875 0 L 4.8125 0 L 4.8125 -2.984375 L 1.359375 -2.984375 L 1.359375 0 L 0.703125 0 L 0.703125 -6.453125 L 1.359375 -6.453125 L 1.359375 -3.515625 L 4.8125 -3.515625 Z M 4.8125 -6.453125 "/></g></g></g><g fill="#000000" fill-opacity="1"><g transform="translate(196.289677, 224.064931)"><g><path d="M 5.515625 -1.25 C 6.015625 -1.75 6.265625 -2.40625 6.265625 -3.21875 C 6.265625 -4.039062 6.019531 -4.703125 5.53125 -5.203125 C 5.039062 -5.703125 4.414062 -5.953125 3.65625 -5.953125 C 2.90625 -5.953125 2.28125 -5.703125 1.78125 -5.203125 C 1.28125 -4.703125 1.03125 -4.039062 1.03125 -3.21875 C 1.03125 -2.40625 1.28125 -1.75 1.78125 -1.25 C 2.28125 -0.75 2.90625 -0.5 3.65625 -0.5 C 4.40625 -0.5 5.023438 -0.75 5.515625 -1.25 Z M 1.328125 -0.859375 C 0.691406 -1.484375 0.375 -2.269531 0.375 -3.21875 C 0.375 -4.175781 0.691406 -4.96875 1.328125 -5.59375 C 1.960938 -6.21875 2.738281 -6.53125 3.65625 -6.53125 C 4.582031 -6.53125 5.359375 -6.21875 5.984375 -5.59375 C 6.617188 -4.96875 6.9375 -4.175781 6.9375 -3.21875 C 6.9375 -2.269531 6.617188 -1.484375 5.984375 -0.859375 C 5.359375 -0.242188 4.582031 0.0625 3.65625 0.0625 C 2.738281 0.0625 1.960938 -0.242188 1.328125 -0.859375 Z M 1.328125 -0.859375 "/></g></g></g><g fill="#000000" fill-opacity="1"><g transform="translate(205.972456, 224.064931)"><g><path d="M 0.453125 -5.921875 L 0.453125 -6.453125 L 4.5 -6.453125 L 4.5 -5.921875 L 2.796875 -5.921875 L 2.796875 0 L 2.15625 0 L 2.15625 -5.921875 Z M 0.453125 -5.921875 "/></g></g></g><g fill="#000000" fill-opacity="1"><g transform="translate(213.298637, 224.064931)"><g><path d="M 5.515625 -1.25 C 6.015625 -1.75 6.265625 -2.40625 6.265625 -3.21875 C 6.265625 -4.039062 6.019531 -4.703125 5.53125 -5.203125 C 5.039062 -5.703125 4.414062 -5.953125 3.65625 -5.953125 C 2.90625 -5.953125 2.28125 -5.703125 1.78125 -5.203125 C 1.28125 -4.703125 1.03125 -4.039062 1.03125 -3.21875 C 1.03125 -2.40625 1.28125 -1.75 1.78125 -1.25 C 2.28125 -0.75 2.90625 -0.5 3.65625 -0.5 C 4.40625 -0.5 5.023438 -0.75 5.515625 -1.25 Z M 1.328125 -0.859375 C 0.691406 -1.484375 0.375 -2.269531 0.375 -3.21875 C 0.375 -4.175781 0.691406 -4.96875 1.328125 -5.59375 C 1.960938 -6.21875 2.738281 -6.53125 3.65625 -6.53125 C 4.582031 -6.53125 5.359375 -6.21875 5.984375 -5.59375 C 6.617188 -4.96875 6.9375 -4.175781 6.9375 -3.21875 C 6.9375 -2.269531 6.617188 -1.484375 5.984375 -0.859375 C 5.359375 -0.242188 4.582031 0.0625 3.65625 0.0625 C 2.738281 0.0625 1.960938 -0.242188 1.328125 -0.859375 Z M 1.328125 -0.859375 "/></g></g></g><g fill="#000000" fill-opacity="1"><g transform="translate(222.98142, 224.064931)"><g><path d="M 1.328125 -0.859375 C 0.691406 -1.484375 0.375 -2.269531 0.375 -3.21875 C 0.375 -4.175781 0.691406 -4.96875 1.328125 -5.59375 C 1.960938 -6.21875 2.738281 -6.53125 3.65625 -6.53125 C 4.320312 -6.53125 4.910156 -6.378906 5.421875 -6.078125 C 5.941406 -5.773438 6.332031 -5.335938 6.59375 -4.765625 L 5.796875 -4.765625 C 5.597656 -5.140625 5.3125 -5.429688 4.9375 -5.640625 C 4.5625 -5.847656 4.132812 -5.953125 3.65625 -5.953125 C 2.90625 -5.953125 2.28125 -5.703125 1.78125 -5.203125 C 1.289062 -4.703125 1.046875 -4.039062 1.046875 -3.21875 C 1.046875 -2.40625 1.289062 -1.75 1.78125 -1.25 C 2.28125 -0.75 2.898438 -0.5 3.640625 -0.5 C 4.390625 -0.5 4.992188 -0.71875 5.453125 -1.15625 C 5.921875 -1.59375 6.1875 -2.191406 6.25 -2.953125 L 3.34375 -2.953125 L 3.34375 -3.46875 L 6.9375 -3.46875 L 6.9375 -2.953125 C 6.84375 -2.046875 6.488281 -1.316406 5.875 -0.765625 C 5.269531 -0.210938 4.519531 0.0625 3.625 0.0625 C 2.726562 0.0625 1.960938 -0.242188 1.328125 -0.859375 Z M 1.328125 -0.859375 "/></g></g></g><g fill="#000000" fill-opacity="1"><g transform="translate(232.654852, 224.064931)"><g><path d="M 1.359375 -2.703125 L 1.359375 0 L 0.703125 0 L 0.703125 -6.453125 L 2.671875 -6.453125 C 3.398438 -6.453125 3.953125 -6.28125 4.328125 -5.9375 C 4.703125 -5.59375 4.890625 -5.15625 4.890625 -4.625 C 4.890625 -4.09375 4.738281 -3.660156 4.4375 -3.328125 C 4.144531 -3.003906 3.710938 -2.804688 3.140625 -2.734375 L 4.96875 0 L 4.125 0 L 2.375 -2.703125 Z M 1.359375 -5.921875 L 1.359375 -3.234375 L 2.671875 -3.234375 C 3.703125 -3.234375 4.21875 -3.679688 4.21875 -4.578125 C 4.21875 -5.472656 3.703125 -5.921875 2.671875 -5.921875 Z M 1.359375 -5.921875 "/></g></g></g><g fill="#000000" fill-opacity="1"><g transform="translate(240.673046, 224.064931)"><g><path d="M 5.265625 0 L 4.71875 -1.5 L 1.703125 -1.5 L 1.15625 0 L 0.5 0 L 2.875 -6.453125 L 3.546875 -6.453125 L 5.921875 0 Z M 1.890625 -2.03125 L 4.515625 -2.03125 L 3.203125 -5.640625 Z M 1.890625 -2.03125 "/></g></g></g><g fill="#000000" fill-opacity="1"><g transform="translate(249.458074, 224.064931)"><g><path d="M 4.328125 -5.9375 C 4.703125 -5.59375 4.890625 -5.140625 4.890625 -4.578125 C 4.890625 -4.015625 4.703125 -3.5625 4.328125 -3.21875 C 3.953125 -2.875 3.398438 -2.703125 2.671875 -2.703125 L 1.359375 -2.703125 L 1.359375 0 L 0.703125 0 L 0.703125 -6.453125 L 2.671875 -6.453125 C 3.398438 -6.453125 3.953125 -6.28125 4.328125 -5.9375 Z M 1.359375 -3.234375 L 2.671875 -3.234375 C 3.703125 -3.234375 4.21875 -3.679688 4.21875 -4.578125 C 4.21875 -5.472656 3.703125 -5.921875 2.671875 -5.921875 L 1.359375 -5.921875 Z M 1.359375 -3.234375 "/></g></g></g><g fill="#000000" fill-opacity="1"><g transform="translate(257.092856, 224.064931)"><g><path d="M 4.8125 -6.453125 L 5.46875 -6.453125 L 5.46875 0 L 4.8125 0 L 4.8125 -2.984375 L 1.359375 -2.984375 L 1.359375 0 L 0.703125 0 L 0.703125 -6.453125 L 1.359375 -6.453125 L 1.359375 -3.515625 L 4.8125 -3.515625 Z M 4.8125 -6.453125 "/></g></g></g><g fill="#000000" fill-opacity="1"><g transform="translate(265.644093, 224.064931)"><g><path d="M 2.859375 0 L 2.203125 0 L 2.203125 -2.546875 L 0.140625 -6.453125 L 0.84375 -6.453125 L 2.53125 -3.140625 L 4.21875 -6.453125 L 4.921875 -6.453125 L 2.859375 -2.546875 Z M 2.859375 0 "/></g></g></g></svg>